<svg width="82" height="39" viewBox="0 0 82 39" fill="none" xmlns="http://www.w3.org/2000/svg">
    <path d="M67.0564 3.03601C67.8844 3.03601 68.7484 3.36001 69.3604 4.72801C71.1244 8.65201 74.0764 14.916 75.2644 17.328L77.2804 21.468C78.5044 24.024 79.1524 25.068 80.3404 25.284L80.9524 25.392C81.2044 25.608 81.1684 26.148 80.8804 26.292C79.8724 26.22 79.0444 26.184 78.1444 26.184C77.2084 26.184 76.1284 26.22 74.9764 26.292C74.6884 26.184 74.6524 25.572 74.9044 25.392L76.0204 25.212C76.6684 25.104 76.8844 24.852 76.8844 24.6C76.8844 24.204 76.4164 22.872 75.6244 21L74.4004 18.156C73.7524 16.68 73.1764 15.564 73.0684 15.492C72.9244 15.564 72.2404 17.472 72.0244 18.048L70.8724 21.36C70.6564 21.972 69.8284 24.312 69.8284 24.744C69.8284 24.996 70.1164 25.104 70.6204 25.212L71.5204 25.392C71.7724 25.572 71.7364 26.184 71.4484 26.292C70.2964 26.22 69.2884 26.184 68.3164 26.184C67.1284 26.184 66.0484 26.22 64.8964 26.292C64.6084 26.184 64.5724 25.572 64.7884 25.392L65.6884 25.212C66.9484 24.96 67.2004 24.096 67.8124 22.404L70.6204 14.7C71.0884 13.368 71.2324 12.936 71.2324 12.216C71.2324 11.712 70.9804 10.956 70.8724 10.668C70.5484 9.80401 69.8284 8.29201 68.7844 6.67201C68.5324 6.27601 68.1724 6.02401 67.5964 6.02401H66.9124C66.1204 6.02401 65.4724 5.55601 65.4724 4.58401C65.4724 3.68401 66.0124 3.03601 67.0564 3.03601Z" fill="#E5301D"/>
    <path d="M3.5914 20.6C3.5914 24.38 3.5194 24.776 1.6114 25.1L0.963404 25.208C0.747404 25.424 0.819404 26 1.0354 26.108C2.3674 26.072 3.5914 26 5.1754 26C6.6874 26 8.4514 26.108 9.49541 26.108C15.9754 26.108 19.0714 23.3 19.0714 19.124C19.0714 15.272 16.1914 13.472 14.2474 13.112C13.8514 13.04 13.5634 12.932 13.5634 12.572C15.7234 11.564 17.2354 10.232 17.2354 7.64001C17.2354 5.33601 16.0474 3.89601 14.4994 3.14001C12.8794 2.31201 10.7194 2.13201 8.4514 2.13201C5.1034 2.13201 2.6554 2.24001 0.711404 2.42001C0.423404 2.56401 0.387404 3.10401 0.675404 3.32001L1.8274 3.42801C3.4474 3.57201 3.5914 4.25601 3.5914 6.92001V20.6ZM6.5434 14.732C6.5434 14.012 6.6874 13.796 8.6314 13.796C14.3554 13.796 15.7954 17.108 15.7954 19.952C15.7954 23.552 13.3474 24.992 10.1434 24.992C9.0634 24.992 7.9834 24.812 7.2994 23.984C6.6154 23.192 6.5434 21.356 6.5434 20.06V14.732ZM6.5434 4.40001C6.5434 3.75201 6.6874 3.57201 7.0474 3.46401C7.3714 3.32001 7.9114 3.24801 8.7034 3.24801C11.4394 3.24801 14.0674 4.58001 14.0674 8.10801C14.0674 11.492 12.0874 12.572 8.4154 12.716C6.5794 12.788 6.5434 12.716 6.5434 11.708V4.40001Z" fill="#E5301D"/>
    <path d="M24.6064 20.096C22.3024 20.924 21.6184 21.752 21.6184 23.156C21.6184 24.164 22.0504 25.064 22.7344 25.676C23.3464 26.216 24.2104 26.504 25.2544 26.504C26.2624 26.504 27.0544 26.036 27.8464 25.604C28.5664 25.208 28.9984 24.884 29.2504 24.884C29.4664 24.884 29.6824 25.172 29.8264 25.388C30.4384 26.18 31.3024 26.504 32.1664 26.504C33.9304 26.504 35.1904 25.1 35.1904 24.92C35.1904 24.668 35.0824 24.452 34.9384 24.452C34.8304 24.452 34.6504 24.596 34.4704 24.704C34.2544 24.812 33.9304 24.92 33.5704 24.92C32.1664 24.92 31.8424 23.444 31.9144 21.788L32.1304 15.524C32.2384 12.824 30.9784 11.312 28.3864 11.312C25.7584 11.312 21.6904 13.868 21.6904 15.74C21.6904 16.064 21.8704 16.244 22.1944 16.244C22.7344 16.244 23.7064 15.992 24.2464 15.56C24.5344 15.344 24.5704 14.912 24.6064 14.336C24.6784 13.22 25.9024 12.716 26.9104 12.716C29.1424 12.716 29.5744 14.516 29.5384 15.848L29.5024 17.504C29.5024 18.044 29.4304 18.368 28.8904 18.548L24.6064 20.096ZM24.3904 22.724C24.3904 21.32 25.4344 20.78 27.5584 20.06C28.2064 19.844 28.8184 19.7 29.0344 19.7C29.2504 19.7 29.3944 19.772 29.3944 20.168L29.3224 22.292C29.2864 23.048 29.2864 23.552 28.8544 23.984C28.4944 24.344 27.3784 24.884 26.6584 24.884C24.8224 24.884 24.3904 23.336 24.3904 22.724Z" fill="#E5301D"/>
    <path d="M37.6131 22.868C37.6131 24.74 37.5771 25.424 37.5411 25.928C37.6131 26.072 37.7571 26.144 37.9011 26.144C37.9731 26.144 38.0091 26.144 38.0451 26.108C38.2251 25.856 38.5131 25.568 38.8011 25.568C39.0891 25.568 39.5571 25.784 40.3131 26.036C41.0331 26.252 42.0411 26.504 43.3731 26.504C48.1971 26.504 51.6531 23.156 51.6531 18.368C51.6531 14.408 48.8811 11.312 44.7771 11.312C43.0131 11.312 41.5731 11.96 40.6371 12.5C40.4211 12.5 40.2771 12.356 40.2771 11.744V4.94001C40.2771 3.35601 40.3491 1.73601 40.4211 0.476009C40.3491 0.332009 40.2051 0.26001 40.0611 0.26001C38.6931 0.980009 36.9651 1.44801 36.1371 1.77201C35.9571 1.88001 35.9571 2.38401 36.1371 2.49201L36.4971 2.70801C37.5771 3.35601 37.6131 3.57201 37.6131 5.69601V22.868ZM40.2771 15.488C40.2771 14.084 40.3491 13.688 40.7091 13.436C41.2131 13.112 42.0771 12.86 43.1571 12.86C46.7211 12.86 48.6291 15.74 48.6291 19.448C48.6291 22.544 47.2971 25.424 43.9131 25.424C42.7611 25.424 41.7891 24.992 41.1771 24.236C40.5651 23.48 40.2771 22.364 40.2771 21.104V15.488Z" fill="#E5301D"/>
    <path d="M59.6091 11.312C56.8731 11.312 54.7131 12.788 54.7131 15.416C54.7131 17.396 56.1891 18.656 58.2771 19.844C59.6091 20.6 61.0491 21.5 61.0491 23.156C61.0491 24.704 59.9331 25.46 58.6371 25.46C56.5851 25.46 55.4331 23.732 54.8211 21.752C54.6411 21.536 54.1731 21.572 53.9931 21.788C53.9211 22.976 54.1371 24.74 54.4251 25.424C55.3251 26.144 56.5851 26.504 58.2771 26.504C60.9411 26.504 63.4611 25.136 63.4611 22.4C63.4611 19.844 61.6971 18.62 59.7891 17.54C58.5291 16.82 57.0171 16.028 57.0171 14.552C57.0171 13.256 57.9171 12.356 59.3211 12.356C60.7971 12.356 61.8771 13.4 62.4891 14.984C62.6691 15.2 63.2091 15.128 63.3531 14.876C63.3531 13.904 63.1011 12.752 62.7771 11.96C62.4531 11.672 61.1211 11.312 59.6091 11.312Z" fill="#E5301D"/>
    <path d="M1.00098 26H82.001V39H1.00098V26Z" fill="#E5301D"/>
</svg>
